<svg xmlns="http://www.w3.org/2000/svg" xmlns:xlink="http://www.w3.org/1999/xlink" width="840" height="711.3"><rect width="840" height="711.3" rx="5" ry="5" class="a"/><svg y="0%" x="0%"><circle cx="20" cy="20" r="6" fill="#ff5f58"/><circle cx="40" cy="20" r="6" fill="#ffbd2e"/><circle cx="60" cy="20" r="6" fill="#18c132"/></svg><svg height="651.3" viewBox="0 0 80 65.13" width="800" x="15" xmlns="http://www.w3.org/2000/svg" xmlns:xlink="http://www.w3.org/1999/xlink" y="50"><style>.a{fill:#282d35}.f{fill:#b9c0cb;white-space:pre}</style><g font-family="Monaco,Consolas,Menlo,'Bitstream Vera Sans Mono','Powerline Symbols',monospace" font-size="1.67"><defs><symbol id="1"><text y="1.67" class="f">║</text><text x="60.12" y="1.67" class="f">║</text></symbol><symbol id="2"><text y="1.67" class="f">──────────────────────────────────────────────────</text></symbol><symbol id="a"><path fill="transparent" d="M0 0h80v31H0z"/></symbol><symbol id="b"><path fill="#6f7683" d="M0 0h1.102v2.171H0z"/></symbol></defs><path class="a" d="M0 0h80v65.13H0z"/><svg width="80"><svg><use xlink:href="#a"/><use xlink:href="#b" x="-.004" y="65.105"/><use xlink:href="#1"/><text y="3.841" class="f">║</text><text x="6.012" y="3.841" class="f">██████╗██╗</text><text x="22.044" y="3.841" class="f">█████╗</text><text x="29.058" y="3.841" class="f">██╗</text><text x="36.072" y="3.841" class="f">██╗██████╗</text><text x="60.12" y="3.841" class="f">║</text><text y="6.012" class="f">║</text><text x="5.01" y="6.012" class="f">██╔════╝██║</text><text x="21.042" y="6.012" class="f">██╔══██╗██║</text><text x="36.072" y="6.012" class="f">██║██╔══██╗</text><text x="60.12" y="6.012" class="f">║</text><text y="8.183" class="f">║</text><text x="5.01" y="8.183" class="f">██║</text><text x="13.026" y="8.183" class="f">██║</text><text x="21.042" y="8.183" class="f">███████║██║</text><text x="33.066" y="8.183" class="f">█╗</text><text x="36.072" y="8.183" class="f">██║██║</text><text x="44.088" y="8.183" class="f">██║</text><text x="60.12" y="8.183" class="f">║</text><text y="10.354" class="f">║</text><text x="5.01" y="10.354" class="f">██║</text><text x="13.026" y="10.354" class="f">██║</text><text x="21.042" y="10.354" class="f">██╔══██║██║███╗██║██║</text><text x="44.088" y="10.354" class="f">██║</text><text x="60.12" y="10.354" class="f">║</text><text y="12.525" class="f">║</text><text x="5.01" y="12.525" class="f">╚██████╗███████╗██║</text><text x="26.052" y="12.525" class="f">██║╚███╔███╔╝██████╔╝</text><text x="60.12" y="12.525" class="f">║</text><text y="14.696" class="f">║</text><text x="6.012" y="14.696" class="f">╚═════╝╚══════╝╚═╝</text><text x="26.052" y="14.696" class="f">╚═╝</text><text x="30.06" y="14.696" class="f">╚══╝╚══╝</text><text x="39.078" y="14.696" class="f">╚═════╝</text><text x="60.12" y="14.696" class="f">║</text><text y="16.867" class="f">║</text><text x="21.042" y="16.867" class="f">WATCH</text><text x="61.122" y="16.867" class="f">║</text><use xlink:href="#1" y="17.368"/><text y="21.209" class="f">║</text><text x="9.018" y="21.209" class="f">🦀</text><text x="12.024" y="21.209" class="f">The</text><text x="16.032" y="21.209" class="f">All-Seeing</text><text x="27.054" y="21.209" class="f">OSINT</text><text x="33.066" y="21.209" class="f">Agent</text><text x="39.078" y="21.209" class="f">🦀</text><text x="60.12" y="21.209" class="f">║</text><use xlink:href="#1" y="21.71"/><text y="25.551" class="f">╚═══════════════════════════════════════════════════════════╝</text><text y="29.893" class="f">🦀</text><text x="3.006" y="29.893" class="f">Initializing</text><text x="16.032" y="29.893" class="f">Clawdwatch...</text><text y="34.235" class="f">📡</text><text x="3.006" y="34.235" class="f">Intelligence</text><text x="16.032" y="34.235" class="f">Sources:</text><use xlink:href="#2" y="34.736"/><text x="2.004" y="38.577" class="f">🛩️</text><text x="7.014" y="38.577" class="f">ADS-B</text><text x="13.026" y="38.577" class="f">Exchange</text><text x="28.056" y="38.577" class="f">⏳</text><text x="30.06" y="38.577" class="f">pending</text><text x="2.004" y="40.748" class="f">🚢</text><text x="5.01" y="40.748" class="f">MarineTraffic</text><text x="26.052" y="40.748" class="f">⏳</text><text x="28.056" y="40.748" class="f">pending</text><text x="2.004" y="42.919" class="f">🛰️</text><text x="7.014" y="42.919" class="f">Sentinel</text><text x="16.032" y="42.919" class="f">Hub</text><text x="28.056" y="42.919" class="f">⏳</text><text x="30.06" y="42.919" class="f">pending</text><text x="2.004" y="45.09" class="f">📱</text><text x="5.01" y="45.09" class="f">Twitter/X</text><text x="26.052" y="45.09" class="f">⏳</text><text x="28.056" y="45.09" class="f">pending</text><text x="2.004" y="47.261" class="f">📱</text><text x="5.01" y="47.261" class="f">Telegram</text><text x="26.052" y="47.261" class="f">⏳</text><text x="28.056" y="47.261" class="f">pending</text><text x="2.004" y="49.432" class="f">📰</text><text x="5.01" y="49.432" class="f">Reuters</text><text x="26.052" y="49.432" class="f">⏳</text><text x="28.056" y="49.432" class="f">pending</text><text x="2.004" y="51.603" class="f">📰</text><text x="5.01" y="51.603" class="f">Al</text><text x="8.016" y="51.603" class="f">Jazeera</text><text x="26.052" y="51.603" class="f">⏳</text><text x="28.056" y="51.603" class="f">pending</text><use xlink:href="#2" y="52.104"/><text y="58.116" class="f">🔍</text><text x="3.006" y="58.116" class="f">Clawdwatch</text><text x="14.028" y="58.116" class="f">is</text><text x="17.034" y="58.116" class="f">ready.</text><text x="24.048" y="58.116" class="f">Watching...</text><text y="62.458" class="f">💡</text><text x="3.006" y="62.458" class="f">Tip:</text><text x="8.016" y="62.458" class="f">Configure</text><text x="18.036" y="62.458" class="f">your</text><text x="23.046" y="62.458" class="f">.env</text><text x="28.056" y="62.458" class="f">file</text><text x="33.066" y="62.458" class="f">to</text><text x="36.072" y="62.458" class="f">enable</text><text x="43.086" y="62.458" class="f">data</text><text x="48.096" y="62.458" class="f">sources.</text></svg></svg></g></svg></svg>